Metropolis-Black.ufo
<glyph name="exclam" format="2">
	<advance width="342"/>
	<unicode hex="0021"/>
	<outline>
		<contour>
			<point x="63" y="687" type="line"/>
			<point x="106" y="274" type="line"/>
			<point x="236" y="274" type="line"/>
			<point x="278" y="687" type="line"/>
		</contour>
		<contour>
			<point x="171" y="-12" type="curve"/>
			<point x="171" y="-12" type="line"/>
			<point x="233" y="-12"/>
			<point x="284" y="41"/>
			<point x="284" y="106" type="curve"/>
			<point x="284" y="166"/>
			<point x="233" y="219"/>
			<point x="171" y="219" type="curve"/>
			<point x="104" y="219"/>
			<point x="53" y="166"/>
			<point x="53" y="106" type="curve"/>
			<point x="53" y="41"/>
			<point x="104" y="-12"/>
		</contour>
	</outline>
</glyph>
<glyph name="dollar" format="2">
	<advance width="724"/>
	<unicode hex="0024"/>
	<anchor x="361" y="687" name="top"/>
	<anchor x="361" y="0" name="bottom"/>
	<outline>
		<contour>
			<point x="325" y="759" type="line"/>
			<point x="325" y="-74" type="line"/>
			<point x="435" y="-74" type="line"/>
			<point x="435" y="759" type="line"/>
		</contour>
		<contour>
			<point x="381" y="-12" type="curve"/>
			<point x="381" y="-12" type="line"/>
			<point x="553" y="-12"/>
			<point x="664" y="73"/>
			<point x="664" y="218" type="curve"/>
			<point x="664" y="349"/>
			<point x="564" y="392"/>
			<point x="404" y="426" type="curve"/>
			<point x="306" y="447"/>
			<point x="282" y="458"/>
			<point x="282" y="493" type="curve"/>
			<point x="282" y="519"/>
			<point x="305" y="538"/>
			<point x="352" y="538" type="curve"/>
			<point x="414" y="538"/>
			<point x="484" y="515"/>
			<point x="548" y="469" type="curve"/>
			<point x="645" y="606" type="line"/>
			<point x="569" y="667"/>
			<point x="476" y="699"/>
			<point x="357" y="699" type="curve"/>
			<point x="194" y="699"/>
			<point x="86" y="610"/>
			<point x="86" y="473" type="curve"/>
			<point x="86" y="330"/>
			<point x="201" y="291"/>
			<point x="350" y="257" type="curve"/>
			<point x="445" y="235"/>
			<point x="469" y="230"/>
			<point x="469" y="197" type="curve"/>
			<point x="469" y="167"/>
			<point x="441" y="149"/>
			<point x="388" y="149" type="curve"/>
			<point x="307" y="149"/>
			<point x="231" y="178"/>
			<point x="161" y="233" type="curve"/>
			<point x="53" y="104" type="line"/>
			<point x="140" y="27"/>
			<point x="257" y="-12"/>
		</contour>
	</outline>
</glyph>
<glyph name="percent" format="2">
	<advance width="902"/>
	<unicode hex="0025"/>
	<outline>
		<contour>
			<point x="622" y="687" type="line"/>
			<point x="139" y="0" type="line"/>
			<point x="281" y="0" type="line"/>
			<point x="764" y="687" type="line"/>
		</contour>
		<contour>
			<point x="678" y="-11" type="curve"/>
			<point x="678" y="-11" type="line"/>
			<point x="784" y="-11"/>
			<point x="857" y="67"/>
			<point x="857" y="167" type="curve"/>
			<point x="857" y="266"/>
			<point x="787" y="346"/>
			<point x="678" y="346" type="curve"/>
			<point x="571" y="346"/>
			<point x="498" y="268"/>
			<point x="498" y="167" type="curve"/>
			<point x="498" y="69"/>
			<point x="569" y="-11"/>
		</contour>
		<contour>
			<point x="678" y="97" type="curve"/>
			<point x="678" y="97" type="line"/>
			<point x="645" y="97"/>
			<point x="620" y="123"/>
			<point x="620" y="167" type="curve"/>
			<point x="620" y="214"/>
			<point x="644" y="238"/>
			<point x="678" y="238" type="curve"/>
			<point x="710" y="238"/>
			<point x="736" y="212"/>
			<point x="736" y="167" type="curve"/>
			<point x="736" y="122"/>
			<point x="711" y="97"/>
		</contour>
		<contour>
			<point x="224" y="338" type="curve"/>
			<point x="224" y="338" type="line"/>
			<point x="331" y="338"/>
			<point x="404" y="415"/>
			<point x="404" y="516" type="curve"/>
			<point x="404" y="614"/>
			<point x="334" y="694"/>
			<point x="224" y="694" type="curve"/>
			<point x="115" y="694"/>
			<point x="45" y="614"/>
			<point x="45" y="516" type="curve"/>
			<point x="45" y="415"/>
			<point x="117" y="338"/>
		</contour>
		<contour>
			<point x="224" y="445" type="curve"/>
			<point x="224" y="445" type="line"/>
			<point x="192" y="445"/>
			<point x="167" y="471"/>
			<point x="167" y="516" type="curve"/>
			<point x="167" y="561"/>
			<point x="191" y="586"/>
			<point x="224" y="586" type="curve"/>
			<point x="257" y="586"/>
			<point x="282" y="560"/>
			<point x="282" y="516" type="curve"/>
			<point x="282" y="470"/>
			<point x="257" y="445"/>
		</contour>
	</outline>
</glyph>
<glyph name="quotesingle" format="2">
	<advance width="292"/>
	<unicode hex="0027"/>
	<outline>
		<contour>
			<point x="112" y="370" type="curve"/>
			<point x="112" y="370" type="line"/>
			<point x="180" y="370" type="line"/>
			<point x="211" y="455"/>
			<point x="242" y="547"/>
			<point x="242" y="606" type="curve"/>
			<point x="242" y="660"/>
			<point x="198" y="705"/>
			<point x="146" y="705" type="curve"/>
			<point x="94" y="705"/>
			<point x="50" y="660"/>
			<point x="50" y="606" type="curve"/>
			<point x="50" y="547"/>
			<point x="81" y="455"/>
		</contour>
	</outline>
</glyph>
<glyph name="parenleft" format="2">
	<advance width="401"/>
	<unicode hex="0028"/>
	<outline>
		<contour>
			<point x="276" y="-170" type="curve"/>
			<point x="276" y="-170" type="line"/>
			<point x="373" y="-67" type="line"/>
			<point x="273" y="36"/>
			<point x="231" y="133"/>
			<point x="231" y="265" type="curve"/>
			<point x="231" y="398"/>
			<point x="273" y="495"/>
			<point x="373" y="598" type="curve"/>
			<point x="276" y="700" type="line"/>
			<point x="130" y="604"/>
			<point x="42" y="447"/>
			<point x="42" y="265" type="curve"/>
			<point x="42" y="84"/>
			<point x="130" y="-74"/>
		</contour>
	</outline>
</glyph>
<glyph name="parenright" format="2">
	<advance width="401"/>
	<unicode hex="0029"/>
	<outline>
		<contour>
			<point x="28" y="-67" type="curve"/>
			<point x="125" y="-170" type="line"/>
			<point x="271" y="-74"/>
			<point x="359" y="84"/>
			<point x="359" y="265" type="curve"/>
			<point x="359" y="447"/>
			<point x="271" y="604"/>
			<point x="125" y="700" type="curve"/>
			<point x="28" y="598" type="line"/>
			<point x="128" y="495"/>
			<point x="170" y="398"/>
			<point x="170" y="265" type="curve"/>
			<point x="170" y="133"/>
			<point x="128" y="36"/>
		</contour>
	</outline>
</glyph>
<glyph name="asterisk" format="2">
	<advance width="430"/>
	<unicode hex="002A"/>
	<outline>
		<contour>
			<point x="216" y="325" type="curve"/>
			<point x="216" y="325" type="line"/>
			<point x="242" y="325"/>
			<point x="263" y="345"/>
			<point x="263" y="368" type="curve"/>
			<point x="263" y="400"/>
			<point x="242" y="444"/>
			<point x="237" y="476" type="curve"/>
			<point x="262" y="456"/>
			<point x="290" y="416"/>
			<point x="317" y="400" type="curve"/>
			<point x="337" y="388"/>
			<point x="365" y="396"/>
			<point x="378" y="419" type="curve"/>
			<point x="391" y="442"/>
			<point x="384" y="470"/>
			<point x="364" y="481" type="curve"/>
			<point x="337" y="497"/>
			<point x="289" y="502"/>
			<point x="258" y="514" type="curve"/>
			<point x="288" y="526"/>
			<point x="337" y="530"/>
			<point x="364" y="546" type="curve"/>
			<point x="384" y="557"/>
			<point x="391" y="585"/>
			<point x="378" y="608" type="curve"/>
			<point x="365" y="631"/>
			<point x="337" y="639"/>
			<point x="317" y="627" type="curve"/>
			<point x="290" y="611"/>
			<point x="262" y="572"/>
			<point x="236" y="552" type="curve"/>
			<point x="241" y="584"/>
			<point x="262" y="628"/>
			<point x="262" y="660" type="curve"/>
			<point x="262" y="683"/>
			<point x="241" y="703"/>
			<point x="215" y="703" type="curve"/>
			<point x="189" y="703"/>
			<point x="168" y="683"/>
			<point x="168" y="660" type="curve"/>
			<point x="168" y="628"/>
			<point x="188" y="584"/>
			<point x="193" y="552" type="curve"/>
			<point x="168" y="572"/>
			<point x="140" y="612"/>
			<point x="113" y="628" type="curve"/>
			<point x="93" y="640"/>
			<point x="65" y="632"/>
			<point x="52" y="609" type="curve"/>
			<point x="39" y="586"/>
			<point x="46" y="558"/>
			<point x="66" y="547" type="curve"/>
			<point x="93" y="531"/>
			<point x="140" y="526"/>
			<point x="171" y="514" type="curve"/>
			<point x="141" y="502"/>
			<point x="93" y="498"/>
			<point x="66" y="482" type="curve"/>
			<point x="46" y="471"/>
			<point x="39" y="443"/>
			<point x="52" y="420" type="curve"/>
			<point x="65" y="397"/>
			<point x="93" y="389"/>
			<point x="113" y="401" type="curve"/>
			<point x="140" y="417"/>
			<point x="167" y="456"/>
			<point x="193" y="476" type="curve"/>
			<point x="188" y="444"/>
			<point x="169" y="400"/>
			<point x="169" y="368" type="curve"/>
			<point x="169" y="345"/>
			<point x="190" y="325"/>
		</contour>
	</outline>
</glyph>
<glyph name="plus" format="2">
	<advance width="601"/>
	<unicode hex="002B"/>
	<outline>
		<contour>
			<point x="51" y="408" type="line"/>
			<point x="51" y="259" type="line"/>
			<point x="550" y="259" type="line"/>
			<point x="550" y="408" type="line"/>
		</contour>
		<contour>
			<point x="221" y="583" type="line"/>
			<point x="221" y="84" type="line"/>
			<point x="381" y="84" type="line"/>
			<point x="381" y="583" type="line"/>
		</contour>
	</outline>
</glyph>
<glyph name="slash" format="2">
	<advance width="542"/>
	<unicode hex="002F"/>
	<outline>
		<contour>
			<point x="341" y="743" type="line"/>
			<point x="1" y="-74" type="line"/>
			<point x="201" y="-74" type="line"/>
			<point x="541" y="743" type="line"/>
		</contour>
	</outline>
</glyph>
<glyph name="zero" format="2">
	<advance width="736"/>
	<unicode hex="0030"/>
	<outline>
		<contour>
			<point x="368" y="-12" type="curve"/>
			<point x="368" y="-12" type="line"/>
			<point x="558" y="-12"/>
			<point x="692" y="135"/>
			<point x="692" y="344" type="curve"/>
			<point x="692" y="552"/>
			<point x="558" y="699"/>
			<point x="368" y="699" type="curve"/>
			<point x="178" y="699"/>
			<point x="44" y="552"/>
			<point x="44" y="344" type="curve"/>
			<point x="44" y="135"/>
			<point x="178" y="-12"/>
		</contour>
		<contour>
			<point x="368" y="164" type="curve"/>
			<point x="368" y="164" type="line"/>
			<point x="295" y="164"/>
			<point x="244" y="239"/>
			<point x="244" y="344" type="curve"/>
			<point x="244" y="449"/>
			<point x="295" y="523"/>
			<point x="368" y="523" type="curve"/>
			<point x="441" y="523"/>
			<point x="492" y="449"/>
			<point x="492" y="344" type="curve"/>
			<point x="492" y="239"/>
			<point x="441" y="164"/>
		</contour>
	</outline>
</glyph>
<glyph name="three" format="2">
	<advance width="649"/>
	<unicode hex="0033"/>
	<outline>
		<contour>
			<point x="321" y="-13" type="curve"/>
			<point x="321" y="-13" type="line"/>
			<point x="493" y="-13"/>
			<point x="603" y="74"/>
			<point x="603" y="196" type="curve"/>
			<point x="603" y="281"/>
			<point x="540" y="336"/>
			<point x="462" y="354" type="curve"/>
			<point x="540" y="377"/>
			<point x="588" y="436"/>
			<point x="588" y="510" type="curve"/>
			<point x="588" y="618"/>
			<point x="490" y="699"/>
			<point x="320" y="699" type="curve"/>
			<point x="188" y="699"/>
			<point x="102" y="646"/>
			<point x="42" y="577" type="curve"/>
			<point x="149" y="458" type="line"/>
			<point x="193" y="499"/>
			<point x="242" y="526"/>
			<point x="299" y="526" type="curve"/>
			<point x="355" y="526"/>
			<point x="390" y="507"/>
			<point x="390" y="473" type="curve"/>
			<point x="390" y="442"/>
			<point x="361" y="425"/>
			<point x="297" y="425" type="curve"/>
			<point x="215" y="425" type="line"/>
			<point x="215" y="263" type="line"/>
			<point x="298" y="264" type="line" smooth="yes"/>
			<point x="380" y="265"/>
			<point x="403" y="247"/>
			<point x="403" y="214" type="curve"/>
			<point x="403" y="183"/>
			<point x="372" y="160"/>
			<point x="310" y="160" type="curve"/>
			<point x="251" y="160"/>
			<point x="187" y="182"/>
			<point x="136" y="230" type="curve"/>
			<point x="27" y="101" type="line"/>
			<point x="91" y="33"/>
			<point x="190" y="-13"/>
		</contour>
	</outline>
</glyph>
<glyph name="six" format="2">
	<advance width="676"/>
	<unicode hex="0036"/>
	<outline>
		<contour>
			<point x="359" y="-12" type="curve"/>
			<point x="359" y="-12" type="line"/>
			<point x="514" y="-12"/>
			<point x="636" y="83"/>
			<point x="636" y="233" type="curve"/>
			<point x="636" y="370"/>
			<point x="531" y="454"/>
			<point x="403" y="454" type="curve"/>
			<point x="326" y="454"/>
			<point x="247" y="420"/>
			<point x="211" y="371" type="curve"/>
			<point x="232" y="181" type="line"/>
			<point x="235" y="250"/>
			<point x="280" y="299"/>
			<point x="341" y="299" type="curve"/>
			<point x="391" y="299"/>
			<point x="436" y="272"/>
			<point x="436" y="225" type="curve"/>
			<point x="436" y="183"/>
			<point x="400" y="152"/>
			<point x="346" y="152" type="curve"/>
			<point x="262" y="152"/>
			<point x="246" y="202"/>
			<point x="246" y="331" type="curve"/>
			<point x="246" y="458"/>
			<point x="294" y="530"/>
			<point x="389" y="530" type="curve"/>
			<point x="441" y="530"/>
			<point x="479" y="514"/>
			<point x="520" y="484" type="curve"/>
			<point x="608" y="630" type="line"/>
			<point x="548" y="673"/>
			<point x="474" y="699"/>
			<point x="387" y="699" type="curve"/>
			<point x="174" y="699"/>
			<point x="46" y="552"/>
			<point x="46" y="331" type="curve"/>
			<point x="46" y="127"/>
			<point x="149" y="-12"/>
		</contour>
	</outline>
</glyph>
<glyph name="eight" format="2">
	<advance width="675"/>
	<unicode hex="0038"/>
	<outline>
		<contour>
			<point x="337" y="-12" type="curve"/>
			<point x="337" y="-12" type="line"/>
			<point x="495" y="-12"/>
			<point x="630" y="56"/>
			<point x="630" y="187" type="curve"/>
			<point x="630" y="261"/>
			<point x="585" y="320"/>
			<point x="506" y="355" type="curve"/>
			<point x="573" y="387"/>
			<point x="612" y="437"/>
			<point x="612" y="510" type="curve"/>
			<point x="612" y="631"/>
			<point x="484" y="699"/>
			<point x="337" y="699" type="curve"/>
			<point x="193" y="699"/>
			<point x="63" y="634"/>
			<point x="63" y="509" type="curve"/>
			<point x="63" y="432"/>
			<point x="107" y="384"/>
			<point x="168" y="355" type="curve"/>
			<point x="93" y="323"/>
			<point x="45" y="265"/>
			<point x="45" y="187" type="curve"/>
			<point x="45" y="57"/>
			<point x="178" y="-12"/>
		</contour>
		<contour>
			<point x="337" y="148" type="curve"/>
			<point x="337" y="148" type="line"/>
			<point x="278" y="148"/>
			<point x="241" y="173"/>
			<point x="241" y="210" type="curve"/>
			<point x="241" y="245"/>
			<point x="286" y="269"/>
			<point x="337" y="272" type="curve"/>
			<point x="388" y="269"/>
			<point x="434" y="245"/>
			<point x="434" y="210" type="curve"/>
			<point x="434" y="173"/>
			<point x="395" y="148"/>
		</contour>
		<contour>
			<point x="337" y="420" type="curve"/>
			<point x="337" y="420" type="line"/>
			<point x="291" y="423"/>
			<point x="254" y="448"/>
			<point x="254" y="482" type="curve"/>
			<point x="254" y="514"/>
			<point x="285" y="540"/>
			<point x="337" y="540" type="curve"/>
			<point x="389" y="540"/>
			<point x="421" y="514"/>
			<point x="421" y="482" type="curve"/>
			<point x="421" y="449"/>
			<point x="383" y="423"/>
		</contour>
	</outline>
</glyph>
<glyph name="colon" format="2">
	<advance width="333"/>
	<unicode hex="003A"/>
	<outline>
		<contour>
			<point x="169" y="313" type="curve"/>
			<point x="169" y="313" type="line"/>
			<point x="231" y="313"/>
			<point x="282" y="366"/>
			<point x="282" y="431" type="curve"/>
			<point x="282" y="491"/>
			<point x="231" y="544"/>
			<point x="169" y="544" type="curve"/>
			<point x="102" y="544"/>
			<point x="51" y="491"/>
			<point x="51" y="431" type="curve"/>
			<point x="51" y="366"/>
			<point x="102" y="313"/>
		</contour>
		<contour>
			<point x="169" y="-12" type="curve"/>
			<point x="169" y="-12" type="line"/>
			<point x="231" y="-12"/>
			<point x="282" y="41"/>
			<point x="282" y="106" type="curve"/>
			<point x="282" y="166"/>
			<point x="231" y="219"/>
			<point x="169" y="219" type="curve"/>
			<point x="102" y="219"/>
			<point x="51" y="166"/>
			<point x="51" y="106" type="curve"/>
			<point x="51" y="41"/>
			<point x="102" y="-12"/>
		</contour>
	</outline>
</glyph>
<glyph name="less" format="2">
	<advance width="602"/>
	<unicode hex="003C"/>
	<outline>
		<contour>
			<point x="51" y="267" type="line"/>
			<point x="526" y="78" type="line"/>
			<point x="526" y="229" type="line"/>
			<point x="195" y="343" type="line"/>
			<point x="526" y="459" type="line"/>
			<point x="526" y="609" type="line"/>
			<point x="51" y="420" type="line"/>
		</contour>
	</outline>
</glyph>
<glyph name="equal" format="2">
	<advance width="675"/>
	<unicode hex="003D"/>
	<outline>
		<contour>
			<point x="88" y="531" type="line"/>
			<point x="88" y="382" type="line"/>
			<point x="587" y="382" type="line"/>
			<point x="587" y="531" type="line"/>
		</contour>
		<contour>
			<point x="88" y="297" type="line"/>
			<point x="88" y="148" type="line"/>
			<point x="587" y="148" type="line"/>
			<point x="587" y="297" type="line"/>
		</contour>
	</outline>
</glyph>
<glyph name="greater" format="2">
	<advance width="602"/>
	<unicode hex="003E"/>
	<outline>
		<contour>
			<point x="76" y="229" type="line"/>
			<point x="76" y="78" type="line"/>
			<point x="551" y="267" type="line"/>
			<point x="551" y="420" type="line"/>
			<point x="76" y="609" type="line"/>
			<point x="76" y="459" type="line"/>
			<point x="407" y="343" type="line"/>
		</contour>
	</outline>
</glyph>
<glyph name="E" format="2">
	<advance width="673"/>
	<unicode hex="0045"/>
	<anchor x="66" y="687" name="ae_upper"/>
	<anchor x="619" y="0" name="bottom"/>
	<anchor x="343" y="687" name="top"/>
	<outline>
		<contour>
			<point x="66" y="687" type="line"/>
			<point x="66" y="0" type="line"/>
			<point x="619" y="0" type="line"/>
			<point x="619" y="173" type="line"/>
			<point x="165" y="173" type="line"/>
			<point x="260" y="54" type="line"/>
			<point x="260" y="333" type="line"/>
			<point x="165" y="264" type="line"/>
			<point x="587" y="264" type="line"/>
			<point x="587" y="437" type="line"/>
			<point x="165" y="437" type="line"/>
			<point x="260" y="367" type="line"/>
			<point x="260" y="633" type="line"/>
			<point x="165" y="514" type="line"/>
			<point x="619" y="514" type="line"/>
			<point x="619" y="687" type="line"/>
		</contour>
	</outline>
</glyph>
<glyph name="H" format="2">
	<advance width="771"/>
	<unicode hex="0048"/>
	<outline>
		<contour>
			<point x="66" y="687" type="line"/>
			<point x="66" y="0" type="line"/>
			<point x="260" y="0" type="line"/>
			<point x="260" y="315" type="line"/>
			<point x="213" y="264" type="line"/>
			<point x="557" y="264" type="line"/>
			<point x="511" y="315" type="line"/>
			<point x="511" y="0" type="line"/>
			<point x="705" y="0" type="line"/>
			<point x="705" y="687" type="line"/>
			<point x="511" y="687" type="line"/>
			<point x="511" y="385" type="line"/>
			<point x="559" y="437" type="line"/>
			<point x="213" y="437" type="line"/>
			<point x="260" y="385" type="line"/>
			<point x="260" y="687" type="line"/>
		</contour>
	</outline>
</glyph>
<glyph name="K" format="2">
	<advance width="750"/>
	<unicode hex="004B"/>
	<anchor x="403" y="0" name="bottom"/>
	<outline>
		<contour>
			<point x="66" y="687" type="line"/>
			<point x="66" y="0" type="line"/>
			<point x="260" y="0" type="line"/>
			<point x="260" y="182" type="line"/>
			<point x="331" y="260" type="line"/>
			<point x="508" y="0" type="line"/>
			<point x="740" y="0" type="line"/>
			<point x="466" y="400" type="line"/>
			<point x="720" y="687" type="line"/>
			<point x="491" y="687" type="line"/>
			<point x="260" y="416" type="line"/>
			<point x="260" y="687" type="line"/>
		</contour>
	</outline>
</glyph>
<glyph name="N" format="2">
	<advance width="788"/>
	<unicode hex="004E"/>
	<anchor x="394" y="687" name="top"/>
	<anchor x="394" y="0" name="bottom"/>
	<outline>
		<contour>
			<point x="66" y="687" type="line"/>
			<point x="66" y="0" type="line"/>
			<point x="260" y="0" type="line"/>
			<point x="260" y="368" type="line"/>
			<point x="528" y="0" type="line"/>
			<point x="722" y="0" type="line"/>
			<point x="722" y="687" type="line"/>
			<point x="528" y="687" type="line"/>
			<point x="528" y="319" type="line"/>
			<point x="260" y="687" type="line"/>
		</contour>
	</outline>
</glyph>
<glyph name="R" format="2">
	<advance width="696"/>
	<unicode hex="0052"/>
	<anchor x="335" y="687" name="top"/>
	<anchor x="342" y="0" name="bottom"/>
	<outline>
		<contour>
			<point x="263" y="269" type="line"/>
			<point x="452" y="0" type="line"/>
			<point x="673" y="0" type="line"/>
			<point x="484" y="269" type="line"/>
		</contour>
		<contour>
			<point x="66" y="687" type="line"/>
			<point x="66" y="0" type="line"/>
			<point x="260" y="0" type="line"/>
			<point x="260" y="207" type="line"/>
			<point x="395" y="207" type="line" smooth="yes"/>
			<point x="549" y="207"/>
			<point x="658" y="306"/>
			<point x="658" y="447" type="curve"/>
			<point x="658" y="588"/>
			<point x="549" y="687"/>
			<point x="395" y="687" type="curve"/>
		</contour>
		<contour>
			<point x="379" y="383" type="curve"/>
			<point x="260" y="383" type="line"/>
			<point x="260" y="511" type="line"/>
			<point x="379" y="511" type="line" smooth="yes"/>
			<point x="425" y="511"/>
			<point x="458" y="484"/>
			<point x="458" y="447" type="curve"/>
			<point x="458" y="410"/>
			<point x="425" y="383"/>
		</contour>
	</outline>
</glyph>
<glyph name="S" format="2">
	<advance width="649"/>
	<unicode hex="0053"/>
	<anchor x="323" y="687" name="top"/>
	<anchor x="323" y="0" name="bottom"/>
	<outline>
		<contour>
			<point x="343" y="-12" type="curve"/>
			<point x="343" y="-12" type="line"/>
			<point x="515" y="-12"/>
			<point x="626" y="73"/>
			<point x="626" y="218" type="curve"/>
			<point x="626" y="349"/>
			<point x="526" y="392"/>
			<point x="366" y="426" type="curve"/>
			<point x="268" y="447"/>
			<point x="244" y="458"/>
			<point x="244" y="493" type="curve"/>
			<point x="244" y="519"/>
			<point x="267" y="538"/>
			<point x="314" y="538" type="curve"/>
			<point x="376" y="538"/>
			<point x="446" y="515"/>
			<point x="510" y="469" type="curve"/>
			<point x="607" y="606" type="line"/>
			<point x="531" y="667"/>
			<point x="438" y="699"/>
			<point x="319" y="699" type="curve"/>
			<point x="156" y="699"/>
			<point x="48" y="610"/>
			<point x="48" y="473" type="curve"/>
			<point x="48" y="330"/>
			<point x="163" y="291"/>
			<point x="312" y="257" type="curve"/>
			<point x="407" y="235"/>
			<point x="431" y="230"/>
			<point x="431" y="197" type="curve"/>
			<point x="431" y="167"/>
			<point x="403" y="149"/>
			<point x="350" y="149" type="curve"/>
			<point x="269" y="149"/>
			<point x="193" y="178"/>
			<point x="123" y="233" type="curve"/>
			<point x="15" y="104" type="line"/>
			<point x="102" y="27"/>
			<point x="219" y="-12"/>
		</contour>
	</outline>
</glyph>
<glyph name="T" format="2">
	<advance width="640"/>
	<unicode hex="0054"/>
	<anchor x="320" y="687" name="top"/>
	<anchor x="320" y="0" name="bottom"/>
	<outline>
		<contour>
			<point x="223" y="514" type="line"/>
			<point x="223" y="0" type="line"/>
			<point x="417" y="0" type="line"/>
			<point x="417" y="514" type="line"/>
			<point x="620" y="514" type="line"/>
			<point x="620" y="687" type="line"/>
			<point x="20" y="687" type="line"/>
			<point x="20" y="514" type="line"/>
		</contour>
	</outline>
</glyph>
<glyph name="W" format="2">
	<advance width="1088"/>
	<unicode hex="0057"/>
	<anchor x="545" y="687" name="top"/>
	<outline>
		<contour>
			<point x="14" y="687" type="line"/>
			<point x="205" y="0" type="line"/>
			<point x="401" y="0" type="line"/>
			<point x="545" y="397" type="line"/>
			<point x="688" y="0" type="line"/>
			<point x="884" y="0" type="line"/>
			<point x="1074" y="687" type="line"/>
			<point x="865" y="687" type="line"/>
			<point x="781" y="290" type="line"/>
			<point x="649" y="687" type="line"/>
			<point x="440" y="687" type="line"/>
			<point x="307" y="290" type="line"/>
			<point x="223" y="687" type="line"/>
		</contour>
	</outline>
</glyph>
<glyph name="Z" format="2">
	<advance width="674"/>
	<unicode hex="005A"/>
	<anchor x="341" y="687" name="top"/>
	<outline>
		<contour>
			<point x="38" y="145" type="line"/>
			<point x="39" y="0" type="line"/>
			<point x="635" y="0" type="line"/>
			<point x="635" y="173" type="line"/>
			<point x="306" y="173" type="line"/>
			<point x="630" y="542" type="line"/>
			<point x="630" y="687" type="line"/>
			<point x="46" y="687" type="line"/>
			<point x="46" y="514" type="line"/>
			<point x="364" y="514" type="line"/>
		</contour>
	</outline>
</glyph>
<glyph name="backslash" format="2">
	<advance width="542"/>
	<unicode hex="005C"/>
	<outline>
		<contour>
			<point x="1" y="743" type="line"/>
			<point x="341" y="-74" type="line"/>
			<point x="541" y="-74" type="line"/>
			<point x="201" y="743" type="line"/>
		</contour>
	</outline>
</glyph>
<glyph name="bracketright" format="2">
	<advance width="424"/>
	<unicode hex="005D"/>
	<outline>
		<contour>
			<point x="44" y="-39" type="line"/>
			<point x="44" y="-160" type="line"/>
			<point x="339" y="-160" type="line"/>
			<point x="339" y="689" type="line"/>
			<point x="44" y="689" type="line"/>
			<point x="44" y="568" type="line"/>
			<point x="192" y="568" type="line"/>
			<point x="192" y="-39" type="line"/>
		</contour>
	</outline>
</glyph>
<glyph name="asciicircum" format="2">
	<advance width="506"/>
	<unicode hex="005E"/>
	<outline>
		<contour>
			<point x="189" y="687" type="line"/>
			<point x="46" y="413" type="line"/>
			<point x="175" y="413" type="line"/>
			<point x="252" y="573" type="line"/>
			<point x="330" y="413" type="line"/>
			<point x="460" y="413" type="line"/>
			<point x="318" y="687" type="line"/>
		</contour>
	</outline>
</glyph>
<glyph name="underscore" format="2">
	<advance width="666"/>
	<unicode hex="005F"/>
	<outline>
		<contour>
			<point x="35" y="-61" type="line"/>
			<point x="35" y="-159" type="line"/>
			<point x="631" y="-159" type="line"/>
			<point x="631" y="-61" type="line"/>
		</contour>
	</outline>
</glyph>
<glyph name="grave" format="2">
	<advance width="297"/>
	<unicode hex="0060"/>
	<anchor x="218" y="704" name="top"/>
	<anchor x="218" y="517" name="_top"/>
	<outline>
		<contour>
			<point x="7" y="710" type="line"/>
			<point x="159" y="574" type="line"/>
			<point x="285" y="574" type="line"/>
			<point x="173" y="738" type="line"/>
		</contour>
	</outline>
</glyph>
<glyph name="a" format="2">
	<advance width="572"/>
	<unicode hex="0061"/>
	<anchor x="301" y="517" name="top"/>
	<anchor x="530" y="0" name="bottom"/>
	<outline>
		<contour>
			<point x="345" y="305" type="curve"/>
			<point x="345" y="0" type="line"/>
			<point x="530" y="0" type="line"/>
			<point x="530" y="305" type="line" smooth="yes"/>
			<point x="530" y="446"/>
			<point x="422" y="529"/>
			<point x="291" y="529" type="curve"/>
			<point x="204" y="529"/>
			<point x="127" y="504"/>
			<point x="55" y="468" type="curve"/>
			<point x="116" y="347" type="line"/>
			<point x="154" y="366"/>
			<point x="194" y="376"/>
			<point x="239" y="376" type="curve"/>
			<point x="306" y="376"/>
			<point x="345" y="350"/>
		</contour>
		<contour>
			<point x="212" y="-12" type="curve"/>
			<point x="212" y="-12" type="line"/>
			<point x="292" y="-12"/>
			<point x="371" y="34"/>
			<point x="391" y="113" type="curve"/>
			<point x="345" y="163" type="line"/>
			<point x="341" y="133"/>
			<point x="306" y="112"/>
			<point x="259" y="112" type="curve"/>
			<point x="224" y="112"/>
			<point x="198" y="131"/>
			<point x="198" y="158" type="curve"/>
			<point x="198" y="187"/>
			<point x="226" y="208"/>
			<point x="263" y="208" type="curve"/>
			<point x="293" y="208"/>
			<point x="323" y="201"/>
			<point x="346" y="188" type="curve"/>
			<point x="397" y="274" type="line"/>
			<point x="346" y="308"/>
			<point x="286" y="325"/>
			<point x="236" y="325" type="curve"/>
			<point x="111" y="325"/>
			<point x="15" y="254"/>
			<point x="15" y="153" type="curve"/>
			<point x="15" y="56"/>
			<point x="101" y="-12"/>
		</contour>
	</outline>
</glyph>
<glyph name="c" format="2">
	<advance width="537"/>
	<unicode hex="0063"/>
	<anchor x="289" y="517" name="top"/>
	<anchor x="299" y="0" name="bottom"/>
	<outline>
		<contour>
			<point x="308" y="-12" type="curve"/>
			<point x="308" y="-12" type="line"/>
			<point x="404" y="-12"/>
			<point x="477" y="27"/>
			<point x="529" y="87" type="curve"/>
			<point x="402" y="189" type="line"/>
			<point x="381" y="165"/>
			<point x="343" y="148"/>
			<point x="310" y="148" type="curve"/>
			<point x="251" y="148"/>
			<point x="202" y="199"/>
			<point x="202" y="260" type="curve"/>
			<point x="202" y="319"/>
			<point x="251" y="369"/>
			<point x="309" y="369" type="curve"/>
			<point x="342" y="369"/>
			<point x="379" y="352"/>
			<point x="399" y="329" type="curve"/>
			<point x="526" y="433" type="line"/>
			<point x="476" y="491"/>
			<point x="403" y="529"/>
			<point x="311" y="529" type="curve"/>
			<point x="152" y="529"/>
			<point x="18" y="406"/>
			<point x="18" y="259" type="curve"/>
			<point x="18" y="112"/>
			<point x="151" y="-12"/>
		</contour>
	</outline>
</glyph>
<glyph name="f" format="2">
	<advance width="403"/>
	<unicode hex="0066"/>
	<outline>
		<contour>
			<point x="88" y="545" type="curve"/>
			<point x="88" y="0" type="line"/>
			<point x="272" y="0" type="line"/>
			<point x="272" y="517" type="line" smooth="yes"/>
			<point x="272" y="548"/>
			<point x="290" y="570"/>
			<point x="316" y="570" type="curve"/>
			<point x="334" y="570"/>
			<point x="353" y="564"/>
			<point x="363" y="555" type="curve"/>
			<point x="396" y="667" type="line"/>
			<point x="364" y="698"/>
			<point x="309" y="720"/>
			<point x="263" y="720" type="curve"/>
			<point x="160" y="720"/>
			<point x="88" y="648"/>
		</contour>
		<contour>
			<point x="23" y="517" type="line"/>
			<point x="23" y="365" type="line"/>
			<point x="374" y="365" type="line"/>
			<point x="374" y="517" type="line"/>
		</contour>
	</outline>
</glyph>
<glyph name="g" format="2">
	<advance width="659"/>
	<unicode hex="0067"/>
	<anchor x="314" y="517" name="top"/>
	<anchor x="307" y="-172" name="bottom"/>
	<outline>
		<contour>
			<point x="307" y="-172" type="curve"/>
			<point x="307" y="-172" type="line"/>
			<point x="479" y="-172"/>
			<point x="601" y="-78"/>
			<point x="601" y="55" type="curve"/>
			<point x="601" y="517" type="line"/>
			<point x="407" y="517" type="line"/>
			<point x="407" y="65" type="line" smooth="yes"/>
			<point x="407" y="21"/>
			<point x="353" y="-12"/>
			<point x="276" y="-12" type="curve"/>
			<point x="219" y="-12"/>
			<point x="159" y="5"/>
			<point x="129" y="30" type="curve"/>
			<point x="66" y="-103" type="line"/>
			<point x="121" y="-143"/>
			<point x="211" y="-172"/>
		</contour>
		<contour>
			<point x="247" y="38" type="curve"/>
			<point x="247" y="38" type="line"/>
			<point x="317" y="38"/>
			<point x="386" y="72"/>
			<point x="426" y="129" type="curve"/>
			<point x="420" y="439" type="line"/>
			<point x="397" y="489"/>
			<point x="319" y="529"/>
			<point x="247" y="529" type="curve"/>
			<point x="122" y="529"/>
			<point x="23" y="428"/>
			<point x="23" y="284" type="curve"/>
			<point x="23" y="140"/>
			<point x="122" y="38"/>
		</contour>
		<contour>
			<point x="314" y="198" type="curve"/>
			<point x="314" y="198" type="line"/>
			<point x="260" y="198"/>
			<point x="221" y="234"/>
			<point x="221" y="284" type="curve"/>
			<point x="221" y="334"/>
			<point x="260" y="369"/>
			<point x="314" y="369" type="curve"/>
			<point x="368" y="369"/>
			<point x="407" y="334"/>
			<point x="407" y="284" type="curve"/>
			<point x="407" y="234"/>
			<point x="368" y="198"/>
		</contour>
	</outline>
</glyph>
<glyph name="k" format="2">
	<advance width="620"/>
	<unicode hex="006B"/>
	<anchor x="321" y="0" name="bottom"/>
	<outline>
		<contour>
			<point x="64" y="699" type="line"/>
			<point x="64" y="0" type="line"/>
			<point x="257" y="0" type="line"/>
			<point x="257" y="119" type="line"/>
			<point x="299" y="171" type="line"/>
			<point x="394" y="0" type="line"/>
			<point x="610" y="0" type="line"/>
			<point x="425" y="294" type="line"/>
			<point x="606" y="517" type="line"/>
			<point x="390" y="517" type="line"/>
			<point x="257" y="335" type="line"/>
			<point x="257" y="699" type="line"/>
		</contour>
	</outline>
</glyph>
<glyph name="l" format="2">
	<advance width="321"/>
	<unicode hex="006C"/>
	<anchor x="160" y="699" name="top"/>
	<anchor x="160" y="0" name="bottom"/>
	<outline>
		<contour>
			<point x="64" y="699" type="line"/>
			<point x="64" y="0" type="line"/>
			<point x="257" y="0" type="line"/>
			<point x="257" y="699" type="line"/>
		</contour>
	</outline>
</glyph>
<glyph name="m" format="2">
	<advance width="953"/>
	<unicode hex="006D"/>
	<outline>
		<contour>
			<point x="395" y="294" type="curve"/>
			<point x="395" y="1" type="line"/>
			<point x="579" y="1" type="line"/>
			<point x="579" y="329" type="line" smooth="yes"/>
			<point x="579" y="446"/>
			<point x="491" y="529"/>
			<point x="383" y="529" type="curve"/>
			<point x="294" y="529"/>
			<point x="231" y="467"/>
			<point x="231" y="379" type="curve"/>
			<point x="249" y="300" type="line"/>
			<point x="249" y="340"/>
			<point x="279" y="369"/>
			<point x="322" y="369" type="curve"/>
			<point x="365" y="369"/>
			<point x="395" y="338"/>
		</contour>
		<contour>
			<point x="56" y="517" type="line"/>
			<point x="56" y="1" type="line"/>
			<point x="249" y="1" type="line"/>
			<point x="249" y="517" type="line"/>
		</contour>
		<contour>
			<point x="725" y="294" type="curve"/>
			<point x="725" y="1" type="line"/>
			<point x="909" y="1" type="line"/>
			<point x="909" y="329" type="line" smooth="yes"/>
			<point x="909" y="446"/>
			<point x="821" y="529"/>
			<point x="713" y="529" type="curve"/>
			<point x="612" y="529"/>
			<point x="541" y="467"/>
			<point x="541" y="379" type="curve"/>
			<point x="579" y="300" type="line"/>
			<point x="579" y="340"/>
			<point x="609" y="369"/>
			<point x="652" y="369" type="curve"/>
			<point x="695" y="369"/>
			<point x="725" y="338"/>
		</contour>
	</outline>
</glyph>
<glyph name="n" format="2">
	<advance width="629"/>
	<unicode hex="006E"/>
	<anchor x="314" y="517" name="top"/>
	<anchor x="314" y="0" name="bottom"/>
	<outline>
		<contour>
			<point x="401" y="284" type="curve"/>
			<point x="401" y="0" type="line"/>
			<point x="585" y="0" type="line"/>
			<point x="585" y="329" type="line" smooth="yes"/>
			<point x="585" y="446"/>
			<point x="506" y="529"/>
			<point x="395" y="529" type="curve"/>
			<point x="296" y="529"/>
			<point x="222" y="467"/>
			<point x="217" y="379" type="curve"/>
			<point x="249" y="290" type="line"/>
			<point x="249" y="336"/>
			<point x="280" y="369"/>
			<point x="323" y="369" type="curve"/>
			<point x="369" y="369"/>
			<point x="401" y="334"/>
		</contour>
		<contour>
			<point x="56" y="517" type="line"/>
			<point x="56" y="0" type="line"/>
			<point x="249" y="0" type="line"/>
			<point x="249" y="517" type="line"/>
		</contour>
	</outline>
</glyph>
<glyph name="o" format="2">
	<advance width="621"/>
	<unicode hex="006F"/>
	<anchor x="311" y="517" name="top"/>
	<outline>
		<contour>
			<point x="311" y="-12" type="curve"/>
			<point x="311" y="-12" type="line"/>
			<point x="472" y="-12"/>
			<point x="603" y="110"/>
			<point x="603" y="259" type="curve"/>
			<point x="603" y="408"/>
			<point x="472" y="529"/>
			<point x="311" y="529" type="curve"/>
			<point x="150" y="529"/>
			<point x="18" y="408"/>
			<point x="18" y="259" type="curve"/>
			<point x="18" y="110"/>
			<point x="150" y="-12"/>
		</contour>
		<contour>
			<point x="311" y="148" type="curve"/>
			<point x="311" y="148" type="line"/>
			<point x="250" y="148"/>
			<point x="200" y="198"/>
			<point x="200" y="259" type="curve"/>
			<point x="200" y="320"/>
			<point x="250" y="369"/>
			<point x="311" y="369" type="curve"/>
			<point x="372" y="369"/>
			<point x="421" y="320"/>
			<point x="421" y="259" type="curve"/>
			<point x="421" y="198"/>
			<point x="372" y="148"/>
		</contour>
	</outline>
</glyph>
<glyph name="q" format="2">
	<advance width="682"/>
	<unicode hex="0071"/>
	<outline>
		<contour>
			<point x="425" y="517" type="line"/>
			<point x="425" y="-172" type="line"/>
			<point x="618" y="-172" type="line"/>
			<point x="618" y="517" type="line"/>
		</contour>
		<contour>
			<point x="260" y="-12" type="curve"/>
			<point x="260" y="-12" type="line"/>
			<point x="396" y="-12"/>
			<point x="493" y="100"/>
			<point x="493" y="259" type="curve"/>
			<point x="493" y="417"/>
			<point x="396" y="529"/>
			<point x="260" y="529" type="curve"/>
			<point x="121" y="529"/>
			<point x="23" y="417"/>
			<point x="23" y="259" type="curve"/>
			<point x="23" y="100"/>
			<point x="121" y="-12"/>
		</contour>
		<contour>
			<point x="321" y="148" type="curve"/>
			<point x="321" y="148" type="line"/>
			<point x="254" y="148"/>
			<point x="207" y="194"/>
			<point x="207" y="259" type="curve"/>
			<point x="207" y="323"/>
			<point x="254" y="369"/>
			<point x="321" y="369" type="curve"/>
			<point x="382" y="369"/>
			<point x="425" y="323"/>
			<point x="425" y="259" type="curve"/>
			<point x="425" y="194"/>
			<point x="382" y="148"/>
		</contour>
	</outline>
</glyph>
<glyph name="t" format="2">
	<advance width="417"/>
	<unicode hex="0074"/>
	<anchor x="262" y="0" name="bottom"/>
	<outline>
		<contour>
			<point x="260" y="-12" type="curve"/>
			<point x="260" y="-12" type="line"/>
			<point x="306" y="-12"/>
			<point x="361" y="10"/>
			<point x="393" y="41" type="curve"/>
			<point x="360" y="163" type="line"/>
			<point x="350" y="154"/>
			<point x="331" y="148"/>
			<point x="313" y="148" type="curve"/>
			<point x="287" y="148"/>
			<point x="269" y="170"/>
			<point x="269" y="201" type="curve"/>
			<point x="269" y="659" type="line"/>
			<point x="85" y="659" type="line"/>
			<point x="85" y="163" type="line" smooth="yes"/>
			<point x="85" y="60"/>
			<point x="157" y="-12"/>
		</contour>
		<contour>
			<point x="20" y="517" type="line"/>
			<point x="20" y="365" type="line"/>
			<point x="371" y="365" type="line"/>
			<point x="371" y="517" type="line"/>
		</contour>
	</outline>
</glyph>
<glyph name="u" format="2">
	<advance width="628"/>
	<unicode hex="0075"/>
	<anchor x="303" y="517" name="top"/>
	<anchor x="573" y="0" name="bottom"/>
	<outline>
		<contour>
			<point x="234" y="-12" type="curve"/>
			<point x="234" y="-12" type="line"/>
			<point x="333" y="-12"/>
			<point x="407" y="50"/>
			<point x="412" y="138" type="curve"/>
			<point x="380" y="227" type="line"/>
			<point x="380" y="181"/>
			<point x="349" y="148"/>
			<point x="306" y="148" type="curve"/>
			<point x="260" y="148"/>
			<point x="228" y="183"/>
			<point x="228" y="233" type="curve"/>
			<point x="228" y="517" type="line"/>
			<point x="44" y="517" type="line"/>
			<point x="44" y="188" type="line" smooth="yes"/>
			<point x="44" y="71"/>
			<point x="123" y="-12"/>
		</contour>
		<contour>
			<point x="380" y="517" type="line"/>
			<point x="380" y="0" type="line"/>
			<point x="573" y="0" type="line"/>
			<point x="573" y="517" type="line"/>
		</contour>
	</outline>
</glyph>
<glyph name="v" format="2">
	<advance width="637"/>
	<unicode hex="0076"/>
	<outline>
		<contour>
			<point x="5" y="517" type="line"/>
			<point x="231" y="0" type="line"/>
			<point x="409" y="0" type="line"/>
			<point x="632" y="517" type="line"/>
			<point x="434" y="517" type="line"/>
			<point x="320" y="221" type="line"/>
			<point x="203" y="517" type="line"/>
		</contour>
	</outline>
</glyph>
<glyph name="w" format="2">
	<advance width="850"/>
	<unicode hex="0077"/>
	<anchor x="425" y="517" name="top"/>
	<outline>
		<contour>
			<point x="8" y="517" type="line"/>
			<point x="186" y="0" type="line"/>
			<point x="357" y="0" type="line"/>
			<point x="425" y="266" type="line"/>
			<point x="495" y="0" type="line"/>
			<point x="666" y="0" type="line"/>
			<point x="842" y="517" type="line"/>
			<point x="657" y="517" type="line"/>
			<point x="581" y="259" type="line"/>
			<point x="504" y="517" type="line"/>
			<point x="346" y="517" type="line"/>
			<point x="270" y="259" type="line"/>
			<point x="193" y="517" type="line"/>
		</contour>
	</outline>
</glyph>
<glyph name="y" format="2">
	<advance width="612"/>
	<unicode hex="0079"/>
	<anchor x="312" y="517" name="top"/>
	<outline>
		<contour>
			<point x="205" y="-180" type="curve"/>
			<point x="205" y="-180" type="line"/>
			<point x="293" y="-180"/>
			<point x="369" y="-115"/>
			<point x="411" y="-4" type="curve"/>
			<point x="606" y="517" type="line"/>
			<point x="412" y="517" type="line"/>
			<point x="312" y="198" type="line"/>
			<point x="206" y="517" type="line"/>
			<point x="9" y="517" type="line"/>
			<point x="218" y="-7" type="line"/>
			<point x="215" y="-14" type="line"/>
			<point x="204" y="-31"/>
			<point x="179" y="-43"/>
			<point x="156" y="-43" type="curve"/>
			<point x="142" y="-43"/>
			<point x="112" y="-31"/>
			<point x="83" y="-14" type="curve"/>
			<point x="44" y="-138" type="line"/>
			<point x="86" y="-163"/>
			<point x="153" y="-180"/>
		</contour>
	</outline>
</glyph>
<glyph name="braceleft" format="2">
	<advance width="427"/>
	<unicode hex="007B"/>
	<outline>
		<contour>
			<point x="373" y="-166" type="curve"/>
			<point x="373" y="-166" type="line"/>
			<point x="388" y="-53" type="line"/>
			<point x="289" y="-41"/>
			<point x="266" y="-25"/>
			<point x="266" y="39" type="curve"/>
			<point x="267" y="153" type="line" smooth="yes"/>
			<point x="267" y="211"/>
			<point x="241" y="249"/>
			<point x="188" y="266" type="curve"/>
			<point x="241" y="283"/>
			<point x="267" y="321"/>
			<point x="267" y="378" type="curve"/>
			<point x="266" y="493" type="line" smooth="yes"/>
			<point x="266" y="556"/>
			<point x="287" y="572"/>
			<point x="388" y="584" type="curve"/>
			<point x="373" y="697" type="line"/>
			<point x="192" y="685"/>
			<point x="119" y="629"/>
			<point x="119" y="508" type="curve"/>
			<point x="121" y="402" type="line" smooth="yes"/>
			<point x="121" y="345"/>
			<point x="95" y="321"/>
			<point x="27" y="321" type="curve"/>
			<point x="27" y="211" type="line"/>
			<point x="93" y="211"/>
			<point x="121" y="187"/>
			<point x="121" y="130" type="curve"/>
			<point x="119" y="23" type="line" smooth="yes"/>
			<point x="119" y="-97"/>
			<point x="191" y="-154"/>
		</contour>
	</outline>
</glyph>
<glyph name="bar" format="2">
	<advance width="321"/>
	<unicode hex="007C"/>
	<outline>
		<contour>
			<point x="96" y="743" type="line"/>
			<point x="96" y="-74" type="line"/>
			<point x="225" y="-74" type="line"/>
			<point x="225" y="743" type="line"/>
		</contour>
	</outline>
</glyph>
<glyph name="braceright" format="2">
	<advance width="427"/>
	<unicode hex="007D"/>
	<outline>
		<contour>
			<point x="39" y="-53" type="curve"/>
			<point x="54" y="-166" type="line"/>
			<point x="236" y="-154"/>
			<point x="308" y="-97"/>
			<point x="308" y="23" type="curve"/>
			<point x="306" y="130" type="line"/>
			<point x="306" y="187"/>
			<point x="334" y="211"/>
			<point x="400" y="211" type="curve"/>
			<point x="400" y="321" type="line"/>
			<point x="332" y="321"/>
			<point x="306" y="345"/>
			<point x="306" y="402" type="curve"/>
			<point x="308" y="508" type="line" smooth="yes"/>
			<point x="308" y="629"/>
			<point x="235" y="685"/>
			<point x="54" y="697" type="curve"/>
			<point x="39" y="584" type="line"/>
			<point x="140" y="572"/>
			<point x="161" y="556"/>
			<point x="161" y="493" type="curve"/>
			<point x="160" y="378" type="line" smooth="yes"/>
			<point x="160" y="321"/>
			<point x="186" y="283"/>
			<point x="239" y="266" type="curve"/>
			<point x="186" y="249"/>
			<point x="160" y="211"/>
			<point x="160" y="153" type="curve"/>
			<point x="161" y="39" type="line" smooth="yes"/>
			<point x="161" y="-25"/>
			<point x="138" y="-41"/>
		</contour>
	</outline>
</glyph>
<glyph name="cent" format="2">
	<advance width="624"/>
	<unicode hex="00A2"/>
	<anchor x="332" y="517" name="top"/>
	<anchor x="342" y="0" name="bottom"/>
	<outline>
		<contour>
			<point x="296" y="589" type="line"/>
			<point x="296" y="-74" type="line"/>
			<point x="406" y="-74" type="line"/>
			<point x="406" y="589" type="line"/>
		</contour>
		<contour>
			<point x="351" y="-12" type="curve"/>
			<point x="351" y="-12" type="line"/>
			<point x="447" y="-12"/>
			<point x="520" y="27"/>
			<point x="572" y="87" type="curve"/>
			<point x="445" y="189" type="line"/>
			<point x="424" y="165"/>
			<point x="386" y="148"/>
			<point x="353" y="148" type="curve"/>
			<point x="294" y="148"/>
			<point x="245" y="199"/>
			<point x="245" y="260" type="curve"/>
			<point x="245" y="319"/>
			<point x="294" y="369"/>
			<point x="352" y="369" type="curve"/>
			<point x="385" y="369"/>
			<point x="422" y="352"/>
			<point x="442" y="329" type="curve"/>
			<point x="569" y="433" type="line"/>
			<point x="519" y="491"/>
			<point x="446" y="529"/>
			<point x="354" y="529" type="curve"/>
			<point x="195" y="529"/>
			<point x="61" y="406"/>
			<point x="61" y="259" type="curve"/>
			<point x="61" y="112"/>
			<point x="194" y="-12"/>
		</contour>
	</outline>
</glyph>
<glyph name="sterling" format="2">
	<advance width="735"/>
	<unicode hex="00A3"/>
	<outline>
		<contour>
			<point x="60" y="76" type="line"/>
			<point x="60" y="0" type="line"/>
			<point x="674" y="0" type="line"/>
			<point x="674" y="143" type="line"/>
			<point x="297" y="143" type="line"/>
			<point x="354" y="87" type="line"/>
			<point x="354" y="443" type="line" smooth="yes"/>
			<point x="354" y="490"/>
			<point x="388" y="523"/>
			<point x="435" y="523" type="curve"/>
			<point x="470" y="523"/>
			<point x="508" y="498"/>
			<point x="527" y="463" type="curve"/>
			<point x="652" y="585" type="line"/>
			<point x="603" y="652"/>
			<point x="502" y="699"/>
			<point x="409" y="699" type="curve"/>
			<point x="263" y="699"/>
			<point x="160" y="601"/>
			<point x="160" y="463" type="curve"/>
			<point x="160" y="143" type="line"/>
		</contour>
		<contour>
			<point x="86" y="337" type="line"/>
			<point x="86" y="250" type="line"/>
			<point x="491" y="250" type="line"/>
			<point x="491" y="337" type="line"/>
		</contour>
	</outline>
</glyph>
<glyph name="registered" format="2">
	<advance width="603"/>
	<unicode hex="00AE"/>
	<outline>
		<contour>
			<point x="302" y="184" type="curve"/>
			<point x="302" y="184" type="line"/>
			<point x="437" y="184"/>
			<point x="548" y="295"/>
			<point x="548" y="430" type="curve"/>
			<point x="548" y="565"/>
			<point x="437" y="675"/>
			<point x="302" y="675" type="curve"/>
			<point x="166" y="675"/>
			<point x="55" y="565"/>
			<point x="55" y="430" type="curve"/>
			<point x="55" y="295"/>
			<point x="166" y="184"/>
		</contour>
		<contour>
			<point x="302" y="226" type="curve"/>
			<point x="302" y="226" type="line"/>
			<point x="189" y="226"/>
			<point x="97" y="317"/>
			<point x="97" y="430" type="curve"/>
			<point x="97" y="542"/>
			<point x="189" y="633"/>
			<point x="302" y="633" type="curve"/>
			<point x="415" y="633"/>
			<point x="506" y="542"/>
			<point x="506" y="430" type="curve"/>
			<point x="506" y="317"/>
			<point x="415" y="226"/>
		</contour>
		<contour>
			<point x="258" y="398" type="line"/>
			<point x="341" y="280" type="line"/>
			<point x="437" y="280" type="line"/>
			<point x="355" y="398" type="line"/>
		</contour>
		<contour>
			<point x="311" y="458" type="curve"/>
			<point x="263" y="458" type="line"/>
			<point x="263" y="494" type="line"/>
			<point x="311" y="494" type="line" smooth="yes"/>
			<point x="325" y="494"/>
			<point x="334" y="487"/>
			<point x="334" y="476" type="curve"/>
			<point x="334" y="465"/>
			<point x="325" y="458"/>
		</contour>
		<contour>
			<point x="178" y="580" type="line"/>
			<point x="178" y="280" type="line"/>
			<point x="263" y="280" type="line"/>
			<point x="263" y="371" type="line"/>
			<point x="311" y="371" type="line" smooth="yes"/>
			<point x="379" y="371"/>
			<point x="431" y="414"/>
			<point x="431" y="476" type="curve"/>
			<point x="431" y="537"/>
			<point x="379" y="580"/>
			<point x="311" y="580" type="curve"/>
		</contour>
	</outline>
</glyph>
<glyph name="macron" format="2">
	<advance width="443"/>
	<unicode hex="00AF"/>
	<anchor x="222" y="704" name="top"/>
	<anchor x="222" y="517" name="_top"/>
	<outline>
		<contour>
			<point x="37" y="679" type="line"/>
			<point x="37" y="573" type="line"/>
			<point x="406" y="573" type="line"/>
			<point x="406" y="679" type="line"/>
		</contour>
	</outline>
</glyph>
<glyph name="degree" format="2">
	<advance width="424"/>
	<unicode hex="00B0"/>
	<outline>
		<contour>
			<point x="212" y="393" type="curve"/>
			<point x="212" y="393" type="line"/>
			<point x="302" y="393"/>
			<point x="367" y="457"/>
			<point x="367" y="546" type="curve"/>
			<point x="367" y="635"/>
			<point x="302" y="699"/>
			<point x="212" y="699" type="curve"/>
			<point x="122" y="699"/>
			<point x="57" y="635"/>
			<point x="57" y="546" type="curve"/>
			<point x="57" y="457"/>
			<point x="122" y="393"/>
		</contour>
		<contour>
			<point x="212" y="485" type="curve"/>
			<point x="212" y="485" type="line"/>
			<point x="177" y="485"/>
			<point x="151" y="511"/>
			<point x="151" y="546" type="curve"/>
			<point x="151" y="581"/>
			<point x="177" y="607"/>
			<point x="212" y="607" type="curve"/>
			<point x="247" y="607"/>
			<point x="273" y="581"/>
			<point x="273" y="546" type="curve"/>
			<point x="273" y="511"/>
			<point x="247" y="485"/>
		</contour>
	</outline>
</glyph>
<glyph name="acute" format="2">
	<advance width="298"/>
	<unicode hex="00B4"/>
	<anchor x="77" y="704" name="top"/>
	<anchor x="77" y="517" name="_top"/>
	<outline>
		<contour>
			<point x="124" y="738" type="line"/>
			<point x="12" y="574" type="line"/>
			<point x="138" y="574" type="line"/>
			<point x="290" y="710" type="line"/>
		</contour>
	</outline>
</glyph>
<glyph name="Eth" format="2">
	<advance width="794"/>
	<unicode hex="00D0"/>
	<outline>
		<contour>
			<point x="104" y="687" type="line"/>
			<point x="104" y="0" type="line"/>
			<point x="360" y="0" type="line" smooth="yes"/>
			<point x="600" y="0"/>
			<point x="770" y="143"/>
			<point x="770" y="344" type="curve"/>
			<point x="770" y="545"/>
			<point x="600" y="687"/>
			<point x="360" y="687" type="curve"/>
		</contour>
		<contour>
			<point x="392" y="176" type="curve"/>
			<point x="298" y="176" type="line"/>
			<point x="298" y="511" type="line"/>
			<point x="392" y="511" type="line" smooth="yes"/>
			<point x="496" y="511"/>
			<point x="570" y="442"/>
			<point x="570" y="344" type="curve"/>
			<point x="570" y="246"/>
			<point x="496" y="176"/>
		</contour>
		<contour>
			<point x="20" y="431" type="line"/>
			<point x="20" y="258" type="line"/>
			<point x="418" y="258" type="line"/>
			<point x="419" y="431" type="line"/>
		</contour>
	</outline>
</glyph>
<glyph name="germandbls" format="2">
	<advance width="653"/>
	<unicode hex="00DF"/>
	<outline>
		<contour>
			<point x="62" y="514" type="curve"/>
			<point x="62" y="0" type="line"/>
			<point x="255" y="0" type="line"/>
			<point x="255" y="463" type="line" smooth="yes"/>
			<point x="255" y="502"/>
			<point x="285" y="524"/>
			<point x="325" y="524" type="curve"/>
			<point x="368" y="524"/>
			<point x="394" y="502"/>
			<point x="394" y="472" type="curve"/>
			<point x="394" y="442"/>
			<point x="365" y="420"/>
			<point x="325" y="420" type="curve"/>
			<point x="324" y="420" type="line"/>
			<point x="324" y="273" type="line"/>
			<point x="354" y="273" type="line" smooth="yes"/>
			<point x="396" y="273"/>
			<point x="426" y="250"/>
			<point x="426" y="218" type="curve"/>
			<point x="426" y="186"/>
			<point x="396" y="163"/>
			<point x="354" y="163" type="curve"/>
			<point x="324" y="163" type="line"/>
			<point x="324" y="0" type="line"/>
			<point x="386" y="0" type="line" smooth="yes"/>
			<point x="526" y="0"/>
			<point x="626" y="75"/>
			<point x="626" y="185" type="curve"/>
			<point x="626" y="271"/>
			<point x="583" y="335"/>
			<point x="509" y="360" type="curve"/>
			<point x="563" y="380"/>
			<point x="594" y="436"/>
			<point x="594" y="514" type="curve"/>
			<point x="594" y="637"/>
			<point x="484" y="724"/>
			<point x="328" y="724" type="curve"/>
			<point x="172" y="724"/>
			<point x="62" y="637"/>
		</contour>
	</outline>
</glyph>
<glyph name="oslash" format="2">
	<advance width="636"/>
	<unicode hex="00F8"/>
	<anchor x="319" y="517" name="top"/>
	<outline>
		<contour>
			<point x="482" y="517" type="line"/>
			<point x="32" y="0" type="line"/>
			<point x="152" y="0" type="line"/>
			<point x="602" y="517" type="line"/>
		</contour>
		<contour>
			<point x="319" y="-12" type="curve"/>
			<point x="319" y="-12" type="line"/>
			<point x="480" y="-12"/>
			<point x="611" y="110"/>
			<point x="611" y="259" type="curve"/>
			<point x="611" y="408"/>
			<point x="480" y="529"/>
			<point x="319" y="529" type="curve"/>
			<point x="158" y="529"/>
			<point x="26" y="408"/>
			<point x="26" y="259" type="curve"/>
			<point x="26" y="110"/>
			<point x="158" y="-12"/>
		</contour>
		<contour>
			<point x="319" y="148" type="curve"/>
			<point x="319" y="148" type="line"/>
			<point x="258" y="148"/>
			<point x="208" y="198"/>
			<point x="208" y="259" type="curve"/>
			<point x="208" y="320"/>
			<point x="258" y="369"/>
			<point x="319" y="369" type="curve"/>
			<point x="380" y="369"/>
			<point x="429" y="320"/>
			<point x="429" y="259" type="curve"/>
			<point x="429" y="198"/>
			<point x="380" y="148"/>
		</contour>
	</outline>
</glyph>
<glyph name="dcaron" format="2">
	<advance width="854"/>
	<unicode hex="010F"/>
	<outline>
		<contour>
			<point x="260" y="-12" type="curve"/>
			<point x="260" y="-12" type="line"/>
			<point x="396" y="-12"/>
			<point x="493" y="100"/>
			<point x="493" y="259" type="curve"/>
			<point x="493" y="417"/>
			<point x="396" y="529"/>
			<point x="260" y="529" type="curve"/>
			<point x="121" y="529"/>
			<point x="23" y="417"/>
			<point x="23" y="259" type="curve"/>
			<point x="23" y="100"/>
			<point x="121" y="-12"/>
		</contour>
		<contour>
			<point x="321" y="148" type="curve"/>
			<point x="321" y="148" type="line"/>
			<point x="254" y="148"/>
			<point x="207" y="194"/>
			<point x="207" y="259" type="curve"/>
			<point x="207" y="323"/>
			<point x="254" y="369"/>
			<point x="321" y="369" type="curve"/>
			<point x="382" y="369"/>
			<point x="425" y="323"/>
			<point x="425" y="259" type="curve"/>
			<point x="425" y="194"/>
			<point x="382" y="148"/>
		</contour>
		<contour>
			<point x="425" y="699" type="line"/>
			<point x="425" y="0" type="line"/>
			<point x="618" y="0" type="line"/>
			<point x="618" y="699" type="line"/>
		</contour>
		<contour>
			<point x="709" y="457" type="curve"/>
			<point x="755" y="421" type="line"/>
			<point x="810" y="466"/>
			<point x="848" y="534"/>
			<point x="848" y="585" type="curve"/>
			<point x="848" y="652"/>
			<point x="812" y="699"/>
			<point x="761" y="699" type="curve"/>
			<point x="712" y="699"/>
			<point x="677" y="663"/>
			<point x="677" y="612" type="curve"/>
			<point x="677" y="562"/>
			<point x="710" y="527"/>
			<point x="758" y="527" type="curve"/>
			<point x="752" y="504"/>
			<point x="732" y="476"/>
		</contour>
	</outline>
</glyph>
<glyph name="idotless" format="2">
	<advance width="305"/>
	<unicode hex="0131"/>
	<anchor x="153" y="517" name="top"/>
	<anchor x="249" y="0" name="bottom"/>
	<outline>
		<contour>
			<point x="56" y="517" type="line"/>
			<point x="56" y="0" type="line"/>
			<point x="249" y="0" type="line"/>
			<point x="249" y="517" type="line"/>
		</contour>
	</outline>
</glyph>
<glyph name="Lslash" format="2">
	<advance width="637"/>
	<unicode hex="0141"/>
	<anchor x="199" y="687" name="top"/>
	<outline>
		<contour>
			<point x="19" y="345" type="line"/>
			<point x="19" y="178" type="line"/>
			<point x="385" y="358" type="line"/>
			<point x="385" y="525" type="line"/>
		</contour>
		<contour>
			<point x="103" y="687" type="line"/>
			<point x="103" y="0" type="line"/>
			<point x="617" y="0" type="line"/>
			<point x="617" y="173" type="line"/>
			<point x="240" y="173" type="line"/>
			<point x="297" y="117" type="line"/>
			<point x="297" y="687" type="line"/>
		</contour>
	</outline>
</glyph>
<glyph name="OE" format="2">
	<advance width="1051"/>
	<unicode hex="0152"/>
	<outline>
		<contour>
			<point x="23" y="344" type="curve"/>
			<point x="23" y="344" type="line"/>
			<point x="23" y="151"/>
			<point x="194" y="0"/>
			<point x="397" y="0" type="curve"/>
			<point x="997" y="0" type="line"/>
			<point x="997" y="173" type="line"/>
			<point x="638" y="173" type="line"/>
			<point x="638" y="264" type="line"/>
			<point x="965" y="264" type="line"/>
			<point x="965" y="437" type="line"/>
			<point x="638" y="437" type="line"/>
			<point x="638" y="514" type="line"/>
			<point x="997" y="514" type="line"/>
			<point x="997" y="687" type="line"/>
			<point x="397" y="687" type="line" smooth="yes"/>
			<point x="194" y="687"/>
			<point x="23" y="537"/>
		</contour>
		<contour>
			<point x="223" y="344" type="curve"/>
			<point x="223" y="344" type="line"/>
			<point x="223" y="441"/>
			<point x="303" y="511"/>
			<point x="397" y="511" type="curve"/>
			<point x="444" y="511" type="line"/>
			<point x="444" y="176" type="line"/>
			<point x="397" y="176" type="line" smooth="yes"/>
			<point x="303" y="176"/>
			<point x="223" y="246"/>
		</contour>
	</outline>
</glyph>
<glyph name="oe" format="2">
	<advance width="982"/>
	<unicode hex="0153"/>
	<anchor x="311" y="517" name="top"/>
	<anchor x="712" y="-12" name="bottom"/>
	<outline>
		<contour>
			<point x="311" y="-12" type="curve"/>
			<point x="311" y="-12" type="line"/>
			<point x="387" y="-12"/>
			<point x="456" y="15"/>
			<point x="507" y="60" type="curve"/>
			<point x="557" y="15"/>
			<point x="627" y="-12"/>
			<point x="707" y="-12" type="curve"/>
			<point x="786" y="-12"/>
			<point x="874" y="21"/>
			<point x="920" y="68" type="curve"/>
			<point x="814" y="175" type="line"/>
			<point x="780" y="148"/>
			<point x="738" y="132"/>
			<point x="699" y="132" type="curve"/>
			<point x="636" y="132"/>
			<point x="600" y="186"/>
			<point x="600" y="260" type="curve"/>
			<point x="600" y="334"/>
			<point x="636" y="385"/>
			<point x="699" y="385" type="curve"/>
			<point x="755" y="385"/>
			<point x="790" y="335"/>
			<point x="790" y="265" type="curve"/>
			<point x="837" y="314" type="line"/>
			<point x="580" y="314" type="line"/>
			<point x="580" y="213" type="line"/>
			<point x="968" y="213" type="line"/>
			<point x="968" y="412"/>
			<point x="865" y="529"/>
			<point x="699" y="529" type="curve"/>
			<point x="622" y="529"/>
			<point x="555" y="503"/>
			<point x="506" y="459" type="curve"/>
			<point x="455" y="503"/>
			<point x="386" y="529"/>
			<point x="311" y="529" type="curve"/>
			<point x="150" y="529"/>
			<point x="18" y="409"/>
			<point x="18" y="260" type="curve"/>
			<point x="18" y="111"/>
			<point x="150" y="-12"/>
		</contour>
		<contour>
			<point x="311" y="148" type="curve"/>
			<point x="311" y="148" type="line"/>
			<point x="250" y="148"/>
			<point x="200" y="199"/>
			<point x="200" y="260" type="curve"/>
			<point x="200" y="321"/>
			<point x="250" y="369"/>
			<point x="311" y="369" type="curve"/>
			<point x="372" y="369"/>
			<point x="421" y="321"/>
			<point x="421" y="260" type="curve"/>
			<point x="421" y="199"/>
			<point x="372" y="148"/>
		</contour>
	</outline>
</glyph>
<glyph name="tcaron" format="2">
	<advance width="601"/>
	<unicode hex="0165"/>
	<anchor x="262" y="0" name="bottom"/>
	<outline>
		<contour>
			<point x="260" y="-12" type="curve"/>
			<point x="260" y="-12" type="line"/>
			<point x="306" y="-12"/>
			<point x="361" y="10"/>
			<point x="393" y="41" type="curve"/>
			<point x="360" y="163" type="line"/>
			<point x="350" y="154"/>
			<point x="331" y="148"/>
			<point x="313" y="148" type="curve"/>
			<point x="287" y="148"/>
			<point x="269" y="170"/>
			<point x="269" y="201" type="curve"/>
			<point x="269" y="659" type="line"/>
			<point x="85" y="659" type="line"/>
			<point x="85" y="163" type="line" smooth="yes"/>
			<point x="85" y="60"/>
			<point x="157" y="-12"/>
		</contour>
		<contour>
			<point x="20" y="517" type="line"/>
			<point x="20" y="365" type="line"/>
			<point x="371" y="365" type="line"/>
			<point x="371" y="517" type="line"/>
		</contour>
		<contour>
			<point x="456" y="457" type="curve"/>
			<point x="502" y="421" type="line"/>
			<point x="557" y="466"/>
			<point x="595" y="534"/>
			<point x="595" y="585" type="curve"/>
			<point x="595" y="652"/>
			<point x="559" y="699"/>
			<point x="508" y="699" type="curve"/>
			<point x="459" y="699"/>
			<point x="424" y="663"/>
			<point x="424" y="612" type="curve"/>
			<point x="424" y="562"/>
			<point x="457" y="527"/>
			<point x="505" y="527" type="curve"/>
			<point x="499" y="504"/>
			<point x="479" y="476"/>
		</contour>
	</outline>
</glyph>
<glyph name="circumflex" format="2">
	<advance width="396"/>
	<unicode hex="02C6"/>
	<anchor x="197" y="704" name="top"/>
	<anchor x="197" y="517" name="_top"/>
	<outline>
		<contour>
			<point x="120" y="728" type="line"/>
			<point x="12" y="574" type="line"/>
			<point x="124" y="574" type="line"/>
			<point x="197" y="641" type="line"/>
			<point x="271" y="574" type="line"/>
			<point x="384" y="574" type="line"/>
			<point x="275" y="728" type="line"/>
		</contour>
	</outline>
</glyph>
<glyph name="breve" format="2">
	<advance width="359"/>
	<unicode hex="02D8"/>
	<anchor x="179" y="704" name="top"/>
	<anchor x="179" y="517" name="_top"/>
	<outline>
		<contour>
			<point x="179" y="575" type="curve"/>
			<point x="179" y="575" type="line"/>
			<point x="241" y="575"/>
			<point x="303" y="599"/>
			<point x="350" y="646" type="curve"/>
			<point x="276" y="720" type="line"/>
			<point x="249" y="693"/>
			<point x="213" y="677"/>
			<point x="179" y="677" type="curve"/>
			<point x="145" y="677"/>
			<point x="109" y="693"/>
			<point x="82" y="720" type="curve"/>
			<point x="8" y="646" type="line"/>
			<point x="56" y="599"/>
			<point x="117" y="575"/>
		</contour>
	</outline>
</glyph>
<glyph name="ring" format="2">
	<advance width="283"/>
	<unicode hex="02DA"/>
	<anchor x="141" y="704" name="top"/>
	<anchor x="141" y="517" name="_top"/>
	<outline>
		<contour>
			<point x="141" y="575" type="curve"/>
			<point x="141" y="575" type="line"/>
			<point x="208" y="575"/>
			<point x="262" y="629"/>
			<point x="262" y="696" type="curve"/>
			<point x="262" y="763"/>
			<point x="208" y="817"/>
			<point x="141" y="817" type="curve"/>
			<point x="75" y="817"/>
			<point x="20" y="763"/>
			<point x="20" y="696" type="curve"/>
			<point x="20" y="629"/>
			<point x="75" y="575"/>
		</contour>
		<contour>
			<point x="141" y="647" type="curve"/>
			<point x="141" y="647" type="line"/>
			<point x="114" y="647"/>
			<point x="92" y="669"/>
			<point x="92" y="696" type="curve"/>
			<point x="92" y="723"/>
			<point x="114" y="745"/>
			<point x="141" y="745" type="curve"/>
			<point x="168" y="745"/>
			<point x="190" y="723"/>
			<point x="190" y="696" type="curve"/>
			<point x="190" y="669"/>
			<point x="168" y="647"/>
		</contour>
	</outline>
</glyph>
<glyph name="hungarumlaut" format="2">
	<advance width="556"/>
	<unicode hex="02DD"/>
	<anchor x="203" y="704" name="top"/>
	<anchor x="203" y="517" name="_top"/>
	<outline>
		<contour>
			<point x="124" y="738" type="line"/>
			<point x="12" y="574" type="line"/>
			<point x="138" y="574" type="line"/>
			<point x="290" y="710" type="line"/>
		</contour>
		<contour>
			<point x="382" y="738" type="line"/>
			<point x="270" y="574" type="line"/>
			<point x="396" y="574" type="line"/>
			<point x="548" y="710" type="line"/>
		</contour>
	</outline>
</glyph>
<glyph name="dotaccentcomb" format="2">
	<advance width="0"/>
	<unicode hex="0307"/>
	<anchor x="-119" y="517" name="_top"/>
	<outline>
		<contour>
			<point x="-119" y="572" type="curve"/>
			<point x="-119" y="572" type="line"/>
			<point x="-65" y="572"/>
			<point x="-21" y="618"/>
			<point x="-21" y="672" type="curve"/>
			<point x="-21" y="724"/>
			<point x="-65" y="770"/>
			<point x="-119" y="770" type="curve"/>
			<point x="-175" y="770"/>
			<point x="-219" y="724"/>
			<point x="-219" y="672" type="curve"/>
			<point x="-219" y="618"/>
			<point x="-175" y="572"/>
		</contour>
	</outline>
</glyph>
<glyph name="minus" format="2">
	<advance width="651"/>
	<unicode hex="2212"/>
	<outline>
		<contour>
			<point x="76" y="408" type="line"/>
			<point x="76" y="259" type="line"/>
			<point x="575" y="259" type="line"/>
			<point x="575" y="408" type="line"/>
		</contour>
	</outline>
</glyph>
<glyph name="_areas" format="2">
	<advance width="424"/>
	<outline>
		<contour>
			<point x="138" y="808" type="line"/>
			<point x="55" y="813" type="line"/>
			<point x="55" y="279" type="line"/>
			<point x="138" y="283" type="line"/>
			<point x="138" y="288" type="line"/>
			<point x="138" y="293" type="line"/>
			<point x="138" y="298" type="line"/>
			<point x="138" y="303" type="line"/>
			<point x="138" y="308" type="line"/>
			<point x="138" y="313" type="line"/>
			<point x="138" y="318" type="line"/>
			<point x="138" y="323" type="line"/>
			<point x="138" y="328" type="line"/>
			<point x="138" y="333" type="line"/>
			<point x="138" y="338" type="line"/>
			<point x="138" y="343" type="line"/>
			<point x="138" y="348" type="line"/>
			<point x="138" y="353" type="line"/>
			<point x="138" y="358" type="line"/>
			<point x="138" y="363" type="line"/>
			<point x="138" y="368" type="line"/>
			<point x="138" y="373" type="line"/>
			<point x="138" y="378" type="line"/>
			<point x="138" y="383" type="line"/>
			<point x="138" y="388" type="line"/>
			<point x="138" y="393" type="line"/>
			<point x="138" y="398" type="line"/>
			<point x="138" y="403" type="line"/>
			<point x="131" y="408" type="line"/>
			<point x="126" y="413" type="line"/>
			<point x="121" y="418" type="line"/>
			<point x="114" y="423" type="line"/>
			<point x="108" y="428" type="line"/>
			<point x="102" y="433" type="line"/>
			<point x="97" y="438" type="line"/>
			<point x="92" y="443" type="line"/>
			<point x="88" y="448" type="line"/>
			<point x="84" y="453" type="line"/>
			<point x="81" y="458" type="line"/>
			<point x="77" y="463" type="line"/>
			<point x="74" y="468" type="line"/>
			<point x="72" y="473" type="line"/>
			<point x="69" y="478" type="line"/>
			<point x="67" y="483" type="line"/>
			<point x="65" y="488" type="line"/>
			<point x="63" y="493" type="line"/>
			<point x="62" y="498" type="line"/>
			<point x="60" y="503" type="line"/>
			<point x="59" y="508" type="line"/>
			<point x="58" y="513" type="line"/>
			<point x="57" y="518" type="line"/>
			<point x="56" y="523" type="line"/>
			<point x="56" y="528" type="line"/>
			<point x="55" y="533" type="line"/>
			<point x="55" y="538" type="line"/>
			<point x="55" y="543" type="line"/>
			<point x="55" y="548" type="line"/>
			<point x="55" y="553" type="line"/>
			<point x="55" y="558" type="line"/>
			<point x="56" y="563" type="line"/>
			<point x="56" y="568" type="line"/>
			<point x="57" y="573" type="line"/>
			<point x="58" y="578" type="line"/>
			<point x="59" y="583" type="line"/>
			<point x="60" y="588" type="line"/>
			<point x="62" y="593" type="line"/>
			<point x="63" y="598" type="line"/>
			<point x="65" y="603" type="line"/>
			<point x="67" y="608" type="line"/>
			<point x="69" y="613" type="line"/>
			<point x="71" y="618" type="line"/>
			<point x="74" y="623" type="line"/>
			<point x="77" y="628" type="line"/>
			<point x="80" y="633" type="line"/>
			<point x="83" y="638" type="line"/>
			<point x="87" y="643" type="line"/>
			<point x="91" y="648" type="line"/>
			<point x="96" y="653" type="line"/>
			<point x="101" y="658" type="line"/>
			<point x="106" y="663" type="line"/>
			<point x="111" y="668" type="line"/>
			<point x="116" y="673" type="line"/>
			<point x="121" y="678" type="line"/>
			<point x="126" y="683" type="line"/>
			<point x="131" y="688" type="line"/>
			<point x="136" y="693" type="line"/>
			<point x="138" y="698" type="line"/>
			<point x="138" y="703" type="line"/>
			<point x="138" y="708" type="line"/>
			<point x="138" y="713" type="line"/>
			<point x="138" y="718" type="line"/>
			<point x="138" y="723" type="line"/>
			<point x="138" y="728" type="line"/>
			<point x="138" y="733" type="line"/>
			<point x="138" y="738" type="line"/>
			<point x="138" y="743" type="line"/>
			<point x="138" y="748" type="line"/>
			<point x="138" y="753" type="line"/>
			<point x="138" y="758" type="line"/>
			<point x="138" y="763" type="line"/>
			<point x="138" y="768" type="line"/>
			<point x="138" y="773" type="line"/>
			<point x="138" y="778" type="line"/>
			<point x="138" y="783" type="line"/>
			<point x="138" y="788" type="line"/>
			<point x="138" y="793" type="line"/>
			<point x="138" y="798" type="line"/>
			<point x="138" y="803" type="line"/>
		</contour>
		<contour>
			<point x="282" y="808" type="line"/>
			<point x="365" y="813" type="line"/>
			<point x="365" y="279" type="line"/>
			<point x="282" y="283" type="line"/>
			<point x="282" y="288" type="line"/>
			<point x="282" y="293" type="line"/>
			<point x="282" y="298" type="line"/>
			<point x="282" y="303" type="line"/>
			<point x="282" y="308" type="line"/>
			<point x="282" y="313" type="line"/>
			<point x="282" y="318" type="line"/>
			<point x="282" y="323" type="line"/>
			<point x="282" y="328" type="line"/>
			<point x="282" y="333" type="line"/>
			<point x="282" y="338" type="line"/>
			<point x="282" y="343" type="line"/>
			<point x="282" y="348" type="line"/>
			<point x="282" y="353" type="line"/>
			<point x="282" y="358" type="line"/>
			<point x="282" y="363" type="line"/>
			<point x="282" y="368" type="line"/>
			<point x="282" y="373" type="line"/>
			<point x="282" y="378" type="line"/>
			<point x="282" y="383" type="line"/>
			<point x="282" y="388" type="line"/>
			<point x="282" y="393" type="line"/>
			<point x="283" y="398" type="line"/>
			<point x="288" y="403" type="line"/>
			<point x="293" y="408" type="line"/>
			<point x="298" y="413" type="line"/>
			<point x="303" y="418" type="line"/>
			<point x="308" y="423" type="line"/>
			<point x="313" y="428" type="line"/>
			<point x="318" y="433" type="line"/>
			<point x="323" y="438" type="line"/>
			<point x="328" y="443" type="line"/>
			<point x="332" y="448" type="line"/>
			<point x="336" y="453" type="line"/>
			<point x="339" y="458" type="line"/>
			<point x="343" y="463" type="line"/>
			<point x="346" y="468" type="line"/>
			<point x="348" y="473" type="line"/>
			<point x="351" y="478" type="line"/>
			<point x="353" y="483" type="line"/>
			<point x="355" y="488" type="line"/>
			<point x="357" y="493" type="line"/>
			<point x="358" y="498" type="line"/>
			<point x="360" y="503" type="line"/>
			<point x="361" y="508" type="line"/>
			<point x="362" y="513" type="line"/>
			<point x="363" y="518" type="line"/>
			<point x="364" y="523" type="line"/>
			<point x="364" y="528" type="line"/>
			<point x="365" y="533" type="line"/>
			<point x="365" y="538" type="line"/>
			<point x="360" y="543" type="line"/>
			<point x="360" y="548" type="line"/>
			<point x="365" y="553" type="line"/>
			<point x="365" y="558" type="line"/>
			<point x="364" y="563" type="line"/>
			<point x="364" y="568" type="line"/>
			<point x="363" y="573" type="line"/>
			<point x="362" y="578" type="line"/>
			<point x="361" y="583" type="line"/>
			<point x="360" y="588" type="line"/>
			<point x="358" y="593" type="line"/>
			<point x="357" y="598" type="line"/>
			<point x="355" y="603" type="line"/>
			<point x="353" y="608" type="line"/>
			<point x="351" y="613" type="line"/>
			<point x="349" y="618" type="line"/>
			<point x="346" y="623" type="line"/>
			<point x="343" y="628" type="line"/>
			<point x="340" y="633" type="line"/>
			<point x="337" y="638" type="line"/>
			<point x="333" y="643" type="line"/>
			<point x="329" y="648" type="line"/>
			<point x="324" y="653" type="line"/>
			<point x="319" y="658" type="line"/>
			<point x="314" y="663" type="line"/>
			<point x="309" y="668" type="line"/>
			<point x="304" y="673" type="line"/>
			<point x="299" y="678" type="line"/>
			<point x="294" y="683" type="line"/>
			<point x="289" y="688" type="line"/>
			<point x="284" y="693" type="line"/>
			<point x="282" y="698" type="line"/>
			<point x="282" y="703" type="line"/>
			<point x="282" y="708" type="line"/>
			<point x="282" y="713" type="line"/>
			<point x="282" y="718" type="line"/>
			<point x="282" y="723" type="line"/>
			<point x="282" y="728" type="line"/>
			<point x="282" y="733" type="line"/>
			<point x="282" y="738" type="line"/>
			<point x="282" y="743" type="line"/>
			<point x="282" y="748" type="line"/>
			<point x="282" y="753" type="line"/>
			<point x="282" y="758" type="line"/>
			<point x="282" y="763" type="line"/>
			<point x="282" y="768" type="line"/>
			<point x="282" y="773" type="line"/>
			<point x="282" y="778" type="line"/>
			<point x="282" y="783" type="line"/>
			<point x="282" y="788" type="line"/>
			<point x="282" y="793" type="line"/>
			<point x="282" y="798" type="line"/>
			<point x="282" y="803" type="line"/>
		</contour>
	</outline>
</glyph>
<glyph name="ascender" format="2">
	<advance width="311"/>
	<anchor x="252" y="259" name="loop_right"/>
	<anchor x="59" y="259" name="loop_left"/>
	<anchor x="252" y="290" name="shoulder"/>
	<anchor x="242" y="107" name="k_arms"/>
	<outline>
		<contour>
			<point x="59" y="699" type="line"/>
			<point x="59" y="0" type="line"/>
			<point x="252" y="0" type="line"/>
			<point x="252" y="699" type="line"/>
		</contour>
	</outline>
</glyph>
<glyph name="capital_V" format="2">
	<advance width="801"/>
	<outline>
		<contour>
			<point x="555" y="687" type="line"/>
			<point x="291" y="0" type="line"/>
			<point x="510" y="0" type="line"/>
			<point x="774" y="687" type="line"/>
		</contour>
		<contour>
			<point x="27" y="687" type="line"/>
			<point x="291" y="0" type="line"/>
			<point x="510" y="0" type="line"/>
			<point x="246" y="687" type="line"/>
		</contour>
	</outline>
</glyph>
<glyph name="descender" format="2">
	<advance width="311"/>
	<anchor x="59" y="259" name="loop_left"/>
	<anchor x="252" y="259" name="loop_right"/>
	<outline>
		<contour>
			<point x="59" y="517" type="line"/>
			<point x="59" y="-172" type="line"/>
			<point x="252" y="-172" type="line"/>
			<point x="252" y="517" type="line"/>
		</contour>
	</outline>
</glyph>
<glyph name="lowercase_loop" format="2">
	<advance width="577"/>
	<anchor x="122" y="259" name="_loop_right"/>
	<outline>
		<contour>
			<point x="287" y="-12" type="curve"/>
			<point x="287" y="-12" type="line"/>
			<point x="426" y="-12"/>
			<point x="524" y="100"/>
			<point x="524" y="259" type="curve"/>
			<point x="524" y="417"/>
			<point x="426" y="529"/>
			<point x="287" y="529" type="curve"/>
			<point x="151" y="529"/>
			<point x="54" y="417"/>
			<point x="54" y="259" type="curve"/>
			<point x="54" y="100"/>
			<point x="151" y="-12"/>
		</contour>
		<contour>
			<point x="226" y="148" type="curve"/>
			<point x="226" y="148" type="line"/>
			<point x="165" y="148"/>
			<point x="122" y="194"/>
			<point x="122" y="259" type="curve"/>
			<point x="122" y="323"/>
			<point x="165" y="369"/>
			<point x="226" y="369" type="curve"/>
			<point x="293" y="369"/>
			<point x="340" y="323"/>
			<point x="340" y="259" type="curve"/>
			<point x="340" y="194"/>
			<point x="293" y="148"/>
		</contour>
	</outline>
</glyph>
<glyph name="lowercase_m_shoulder" format="2">
	<advance width="418"/>
	<anchor x="40" y="290" name="_shoulder"/>
	<anchor x="370" y="290" name="shoulder"/>
	<outline>
		<contour>
			<point x="186" y="294" type="curve"/>
			<point x="186" y="-1" type="line"/>
			<point x="370" y="-1" type="line"/>
			<point x="370" y="329" type="line" smooth="yes"/>
			<point x="370" y="446"/>
			<point x="282" y="529"/>
			<point x="174" y="529" type="curve"/>
			<point x="85" y="529"/>
			<point x="22" y="467"/>
			<point x="22" y="379" type="curve"/>
			<point x="40" y="300" type="line"/>
			<point x="40" y="340"/>
			<point x="70" y="369"/>
			<point x="113" y="369" type="curve"/>
			<point x="156" y="369"/>
			<point x="186" y="338"/>
		</contour>
	</outline>
</glyph>
<glyph name="lowercase_nh_shoulder" format="2">
	<advance width="437"/>
	<anchor x="52" y="290" name="_shoulder"/>
	<outline>
		<contour>
			<point x="204" y="284" type="curve"/>
			<point x="204" y="0" type="line"/>
			<point x="388" y="0" type="line"/>
			<point x="388" y="329" type="line" smooth="yes"/>
			<point x="388" y="446"/>
			<point x="309" y="529"/>
			<point x="198" y="529" type="curve"/>
			<point x="99" y="529"/>
			<point x="25" y="467"/>
			<point x="20" y="379" type="curve"/>
			<point x="52" y="290" type="line"/>
			<point x="52" y="336"/>
			<point x="83" y="369"/>
			<point x="126" y="369" type="curve"/>
			<point x="172" y="369"/>
			<point x="204" y="334"/>
		</contour>
	</outline>
</glyph>
<glyph name="lowercase_r_shoulder" format="2">
	<advance width="267"/>
	<anchor x="67" y="219" name="_r_shoulder"/>
	<outline>
		<contour>
			<point x="34" y="279" type="curve"/>
			<point x="67" y="219" type="line"/>
			<point x="67" y="313"/>
			<point x="127" y="369"/>
			<point x="229" y="369" type="curve"/>
			<point x="229" y="529" type="line"/>
			<point x="115" y="529"/>
			<point x="34" y="425"/>
		</contour>
	</outline>
</glyph>
<glyph name="thorn_stem" format="2">
	<advance width="311"/>
	<anchor x="252" y="259" name="loop_right"/>
	<outline>
		<contour>
			<point x="59" y="699" type="line"/>
			<point x="59" y="-172" type="line"/>
			<point x="252" y="-172" type="line"/>
			<point x="252" y="699" type="line"/>
		</contour>
	</outline>
</glyph>
